<svg width="20" height="20" viewBox="0 0 24 24" fill="none" xmlns="http://www.w3.org/2000/svg">
  <path d="M23 3.01C22.47 3.26 21.94 3.42 21.37 3.57C21.97 3.1 22.43 2.47 22.68 1.74C22.15 2.1 21.54 2.36 20.92 2.51C20.41 1.88 19.64 1.5 18.77 1.5C17.1 1.5 15.73 2.87 15.73 4.54C15.73 4.81 15.76 5.07 15.82 5.32C13.3 5.18 11.06 3.95 9.54 2.11C9.24 2.61 9.07 3.19 9.07 3.82C9.07 5 9.67 6.04 10.56 6.65C10.1 6.64 9.67 6.51 9.29 6.3V6.34C9.29 7.8 10.34 9.04 11.75 9.35C11.47 9.43 11.17 9.47 10.86 9.47C10.64 9.47 10.43 9.45 10.22 9.4C10.65 10.62 11.78 11.49 13.12 11.52C12.07 12.32 10.75 12.8 9.32 12.8C9.04 12.8 8.77 12.78 8.5 12.75C9.85 13.61 11.46 14.11 13.18 14.11C18.77 14.11 21.84 9.52 21.84 5.54C21.84 5.39 21.84 5.24 21.83 5.09C22.37 4.56 22.83 3.92 23.2 3.21L23 3.01Z" fill="white"/>
</svg>